<?xml version="1.0" encoding="UTF-8"?>
<svg version="1.1" xmlns="http://www.w3.org/2000/svg" width="1024" height="1024">
<path d="M0 0 C2.66480699 2.29749576 5.38476217 4.49314962 8.140625 6.6796875 C19.95290849 16.32723794 30.72141833 27.2398691 41.515625 37.9921875 C42.34441162 38.81630127 43.17319824 39.64041504 44.02709961 40.48950195 C48.85509866 45.33025662 53.4416121 50.30324772 57.890625 55.4921875 C58.91214204 56.64883435 59.93553677 57.803826 60.9609375 58.95703125 C69.06339609 68.13797858 76.59837204 77.65816367 83.890625 87.4921875 C84.695 88.57306641 84.695 88.57306641 85.515625 89.67578125 C115.85356524 130.58824393 139.85578028 175.5014645 156.890625 223.4921875 C157.40254395 224.92715576 157.40254395 224.92715576 157.92480469 226.39111328 C189.25662053 315.00468431 193.9404173 411.76159916 144.890625 596.4921875 C144.27501709 597.89621826 144.27501709 597.89621826 143.64697266 599.32861328 C124.36604716 643.08566291 99.539955 683.76760055 68.890625 720.4921875 C68.41383301 721.06807617 67.93704102 721.64396484 67.44580078 722.23730469 C66.75526611 723.07116699 66.75526611 723.07116699 66.05078125 723.921875 C65.65511963 724.39995605 65.25945801 724.87803711 64.85180664 725.37060547 C55.07536427 736.97827058 44.63551263 747.91688022 33.88916016 758.62402344 C32.12413956 760.3836223 30.36461367 762.14859147 28.60546875 763.9140625 C22.87026671 769.65293628 17.10461883 775.26666061 10.890625 780.4921875 C9.88065504 781.36880714 8.87149509 782.24636118 7.86328125 783.125 C-64.05686241 844.71567336 -153.25917439 885.96774686 -268.046875 902.8046875 C-269.13977844 902.92692688 -269.13977844 902.92692688 -270.25476074 903.05163574 C-288.29827929 905.03553172 -306.27526989 905.70274094 -324.421875 905.6796875 C-325.86543869 905.67828262 -325.86543869 905.67828262 -327.33816528 905.67684937 C-408.71508758 905.50624785 -486.36279935 885.75891908 -559.109375 849.4921875 C-559.9554834 849.07114746 -560.8015918 848.65010742 -561.67333984 848.21630859 C-592.78971375 832.60467869 -622.90702117 812.83971534 -649.2109375 789.9921875 C-651.92151325 787.65422459 -654.68634291 785.41154888 -657.484375 783.1796875 C-669.57686506 773.27799094 -680.55445598 762.14242267 -691.609375 751.1171875 C-692.17576691 750.55347443 -692.74215881 749.98976135 -693.32571411 749.40896606 C-699.47155395 743.28517468 -705.51339939 737.13051343 -711.109375 730.4921875 C-711.98611398 729.48232113 -712.86367087 728.47316406 -713.7421875 727.46484375 C-786.13255927 642.93376699 -829.82092748 534.94491308 -835.09375 354.84082031 C-828.23139166 275.4496549 -804.70055782 198.66185359 -763.109375 130.4921875 C-762.00598556 128.65396077 -760.90311547 126.8154222 -759.80078125 124.9765625 C-752.79678004 113.38524938 -745.24707515 102.31509037 -737.109375 91.4921875 C-736.64901855 90.87875488 -736.18866211 90.26532227 -735.71435547 89.63330078 C-719.39206686 67.9682991 -701.49553718 47.81163048 -682.359375 28.6171875 C-681.86359955 28.11873322 -681.3678241 27.62027893 -680.85702515 27.10671997 C-675.12151778 21.34772345 -669.3042463 15.75774331 -663.109375 10.4921875 C-662.02606094 9.54312895 -660.94397966 8.59266094 -659.86328125 7.640625 C-651.56562275 0.40355976 -642.97524397 -6.37352781 -634.16162109 -12.97021484 C-632.26966169 -14.38772142 -630.38628247 -15.81590555 -628.50390625 -17.24609375 C-549.03818282 -77.11086202 -451.29131683 -110.6283879 0 0 Z M-665.109375 199.4921875 C-675.05373786 211.70954759 -678.1748782 223.95106225 -677.109375 239.4921875 C-675.45351528 248.47971524 -671.93120359 255.5059932 -666.109375 262.4921875 C-665.53574219 263.20117188 -664.96210937 263.91015625 -664.37109375 264.640625 C-656.90758467 272.98313408 -645.2842896 278.62851114 -634.109375 279.4921875 C-628.50711313 279.67617474 -623.59604155 279.15708664 -618.15234375 277.76171875 C-617.41896286 277.58155716 -616.68558197 277.40139557 -615.92997742 277.21577454 C-613.65337374 276.65270362 -611.38094106 276.07522464 -609.109375 275.4921875 C-608.41749084 275.31492126 -607.72560669 275.13765503 -607.01275635 274.95501709 C-604.28930975 274.2548421 -601.56711597 273.54996528 -598.84584045 272.84140015 C-541.88099426 258.02331969 -482.47060106 250.43759745 -423.59375 250.2890625 C-421.86143468 250.28203941 -420.12911962 250.2749526 -418.39680481 250.26780701 C-412.88432445 250.24839113 -407.3718861 250.24337205 -401.859375 250.2421875 C-400.4494887 250.24152472 -400.4494887 250.24152472 -399.01111984 250.24084854 C-370.81977881 250.23389937 -342.77557503 250.48238366 -314.6940918 253.23895264 C-311.98877152 253.5040035 -309.28257561 253.75847432 -306.57617188 254.01220703 C-223.82800512 261.87377219 -141.89450027 279.92437342 -65.92871094 314.21972656 C-64.1945018 315.00243335 -62.45854481 315.7812976 -60.71972656 316.55371094 C-50.6102311 321.04530003 -41.01530216 326.23143404 -31.47607422 331.83740234 C-17.36516026 340.03445846 -2.63883344 345.85680257 13.8046875 341.62109375 C21.28028021 339.13737286 27.11527617 335.81705912 32.890625 330.4921875 C33.51453125 329.97011719 34.1384375 329.44804687 34.78125 328.91015625 C42.05146681 322.41437558 47.07314004 312.13845153 48.10961914 302.44384766 C48.95665807 286.86469746 46.02663676 274.70029752 35.39892578 262.82543945 C31.16893718 258.36139229 26.75350877 255.2696449 21.390625 252.3046875 C20.16327637 251.61149414 20.16327637 251.61149414 18.91113281 250.90429688 C-59.19041594 207.17212565 -144.76857763 181.87595085 -665.109375 199.4921875 Z M-584.359375 350.5546875 C-585.1755127 350.75629486 -585.99165039 350.95790222 -586.83251953 351.1656189 C-595.63706471 353.35703838 -604.33288568 355.78135657 -612.953125 358.6171875 C-614.06654266 358.9807711 -614.06654266 358.9807711 -615.20245361 359.35169983 C-626.11667755 363.03828459 -633.44866097 369.20636988 -638.859375 379.3671875 C-643.75739558 389.87423164 -644.46864018 400.59416458 -640.546875 411.6796875 C-635.56972738 422.62941226 -627.39123356 430.28379993 -616.1953125 434.62109375 C-604.16157648 438.16136173 -592.86644262 435.47615411 -581.171875 431.9296875 C-526.33022046 416.14628948 -469.4032218 410.26399245 -412.484375 410.2421875 C-411.77862713 410.24159836 -411.07287926 410.24100922 -410.34574509 410.24040222 C-387.21274911 410.22680621 -364.26054841 410.8261932 -341.24084473 413.26757812 C-339.12318134 413.49073262 -337.00469926 413.70358066 -334.88574219 413.9140625 C-255.10484789 421.93246564 -173.35764457 443.56822384 -88.17749023 491.35253906 C-76.35034311 498.35551404 -65.91158865 501.87919351 -51.98046875 498.80078125 C-41.46885918 495.3066579 -31.89063688 487.81497708 -26.75390625 477.8671875 C-21.70650432 465.62222686 -22.05132828 454.76701116 -27.109375 442.4921875 C-32.46032318 432.8149408 -41.99276884 426.07640429 -51.484375 420.8671875 C-52.37576172 420.36848145 -53.26714844 419.86977539 -54.18554688 419.35595703 C-66.01543206 412.79526951 -78.033292 406.58517955 -90.109375 400.4921875 C-91.01091309 400.03602051 -91.91245117 399.57985352 -92.84130859 399.10986328 C-167.67700527 361.54035024 -252.55761678 341.39294369 -361.109375 331.4921875 C-362.14340958 331.42010071 -362.14340958 331.42010071 -363.19833374 331.34655762 C-378.4683154 330.31343608 -393.7470493 330.24916158 -409.046875 330.2421875 C-409.71320827 330.24174564 -410.37954155 330.24130379 -411.06606674 330.24084854 C-469.61399369 330.22058455 -527.49178997 336.42964725 -584.359375 350.5546875 Z M-569.109375 513.6796875 C-569.92237061 513.84190796 -570.73536621 514.00412842 -571.57299805 514.17126465 C-595.97285385 517.98525758 -595.97285385 517.98525758 -615.546875 531.3671875 C-616.44068004 532.71675715 -617.29791979 534.09155688 -618.109375 535.4921875 C-618.44839844 536.07355469 -618.78742188 536.65492188 -619.13671875 537.25390625 C-622.64131322 544.69915071 -622.46579716 554.17946064 -620.04296875 561.8828125 C-615.79698865 571.09207723 -609.84151561 576.6401477 -600.67578125 580.765625 C-592.95959199 582.95011694 -586.527036 582.31557415 -578.796875 580.5546875 C-576.57632609 580.08342914 -574.35489428 579.61632052 -572.1328125 579.15234375 C-570.87952148 578.88953613 -569.62623047 578.62672852 -568.33496094 578.35595703 C-514.68158592 567.28068972 -460.26301513 560.24092766 -405.421875 560.3046875 C-404.44826019 560.30529175 -403.47464539 560.305896 -402.4715271 560.30651855 C-329.20017384 560.42883263 -256.39767506 572.84801787 -189.109375 602.4921875 C-188.1822168 602.89405273 -187.25505859 603.29591797 -186.29980469 603.70996094 C-170.49342666 610.57100156 -155.36105617 618.48710245 -140.48828125 627.18359375 C-130.39340804 633.06882208 -122.00483238 637.31576467 -110.109375 634.4921875 C-100.66444788 630.8788402 -93.67345116 625.63687633 -89.109375 616.4921875 C-86.05134923 608.65465991 -85.80589001 600.1380235 -88.671875 592.1796875 C-93.10865648 582.6590939 -100.2440059 577.62108691 -109.109375 572.4921875 C-110.62111538 571.5976928 -112.13283225 570.70315837 -113.64453125 569.80859375 C-196.73379069 521.093026 -293.26408621 498.35748667 -389.109375 496.4921875 C-390.12612305 496.47027344 -391.14287109 496.44835937 -392.19042969 496.42578125 C-451.51035428 495.32624604 -511.00172229 502.05539387 -569.109375 513.6796875 Z " fill="#1DD75F" transform="translate(837.109375,117.5078125)"/>
</svg>
